<?xml version="1.0" encoding="UTF-8" standalone="no"?>
<!DOCTYPE svg PUBLIC "-//W3C//DTD SVG 1.1//EN" "http://www.w3.org/Graphics/SVG/1.1/DTD/svg11.dtd">
<svg version="1.1" xmlns="http://www.w3.org/2000/svg" xmlns:xlink="http://www.w3.org/1999/xlink" preserveAspectRatio="xMidYMid meet" viewBox="0 0 900 450" width="900" height="450"><defs><path d="M-40.31 -31L940.31 -31L940.31 626L-40.31 626L-40.31 -31Z" id="cb2Swgd46U"></path><path d="M65 85.6L835 85.6L835 338L65 338L65 85.6Z" id="a1SHBtb6R1"></path><path d="M-4 -3.5L904 -3.5L904 49.5L-4 49.5L-4 -3.5Z" id="c11WeAyyUJ"></path><linearGradient id="gradientd2e9FLZg2T" gradientUnits="userSpaceOnUse" x1="1164" y1="23" x2="-27" y2="23"><stop style="stop-color: #000000;stop-opacity: 1" offset="0%"></stop><stop style="stop-color: #302b63;stop-opacity: 1" offset="50.703651589797914%"></stop><stop style="stop-color: #0f0c29;stop-opacity: 1" offset="100%"></stop></linearGradient><path d="M83.57 104L299.2 104L299.2 117L83.57 117L83.57 104Z" id="aJbN8nl4P"></path><path d="M98.57 149.76C98.57 153.9 95.21 157.26 91.07 157.26C86.93 157.26 83.57 153.9 83.57 149.76C83.57 145.62 86.93 142.26 91.07 142.26C95.21 142.26 98.57 145.62 98.57 149.76Z" id="buylmWAWV"></path><path d="M790.36 138.26L821.36 138.26L821.36 161.26L790.36 161.26L790.36 138.26Z" id="coi4lIVXU"></path><path d="M108.83 145.76L268.33 145.76L268.33 153.76L108.83 153.76L108.83 145.76Z" id="am1fdHKCc"></path><path d="M569.36 138.26L631.36 138.26L631.36 161.26L569.36 161.26L569.36 138.26Z" id="bnNQkTojO"></path><path d="M715.99 138.26L777.99 138.26L777.99 161.26L715.99 161.26L715.99 138.26Z" id="bopK4E6Jz"></path><path d="M642.68 138.26L704.68 138.26L704.68 161.26L642.68 161.26L642.68 138.26Z" id="g1f0d3mIJ2"></path><path d="M98.57 187.26C98.57 191.4 95.21 194.76 91.07 194.76C86.93 194.76 83.57 191.4 83.57 187.26C83.57 183.12 86.93 179.76 91.07 179.76C95.21 179.76 98.57 183.12 98.57 187.26Z" id="bw8SqECC"></path><path d="M790.36 175.76L821.36 175.76L821.36 198.76L790.36 198.76L790.36 175.76Z" id="a1TjOyJYZj"></path><path d="M108.83 183.26L268.33 183.26L268.33 191.26L108.83 191.26L108.83 183.26Z" id="m4SndGvjU"></path><path d="M569.36 175.76L631.36 175.76L631.36 198.76L569.36 198.76L569.36 175.76Z" id="b5fuzLGvhY"></path><path d="M715.99 175.76L777.99 175.76L777.99 198.76L715.99 198.76L715.99 175.76Z" id="eEQ96O3Si"></path><path d="M642.68 175.76L704.68 175.76L704.68 198.76L642.68 198.76L642.68 175.76Z" id="c1SrZRolhj"></path><path d="M98.57 224.76C98.57 228.9 95.21 232.26 91.07 232.26C86.93 232.26 83.57 228.9 83.57 224.76C83.57 220.62 86.93 217.26 91.07 217.26C95.21 217.26 98.57 220.62 98.57 224.76Z" id="a1cpdnieYz"></path><path d="M790.36 213.26L821.36 213.26L821.36 236.26L790.36 236.26L790.36 213.26Z" id="ae15jBgFm"></path><path d="M108.83 220.76L268.33 220.76L268.33 228.76L108.83 228.76L108.83 220.76Z" id="ajly5LE08"></path><path d="M569.36 213.26L631.36 213.26L631.36 236.26L569.36 236.26L569.36 213.26Z" id="dWeixOzY3"></path><path d="M715.99 213.26L777.99 213.26L777.99 236.26L715.99 236.26L715.99 213.26Z" id="b12qipuFjZ"></path><path d="M642.68 213.26L704.68 213.26L704.68 236.26L642.68 236.26L642.68 213.26Z" id="a3eYqFWUH7"></path><path d="M98.57 262.26C98.57 266.4 95.21 269.76 91.07 269.76C86.93 269.76 83.57 266.4 83.57 262.26C83.57 258.12 86.93 254.76 91.07 254.76C95.21 254.76 98.57 258.12 98.57 262.26Z" id="e6Ahepd58"></path><path d="M790.36 250.76L821.36 250.76L821.36 273.76L790.36 273.76L790.36 250.76Z" id="a17p3tgjMC"></path><path d="M108.83 258.26L268.33 258.26L268.33 266.26L108.83 266.26L108.83 258.26Z" id="a58HnMXQeg"></path><path d="M569.36 250.76L631.36 250.76L631.36 273.76L569.36 273.76L569.36 250.76Z" id="gtsemhE0H"></path><path d="M715.99 250.76L777.99 250.76L777.99 273.76L715.99 273.76L715.99 250.76Z" id="a5ZjqJrEYo"></path><path d="M642.68 250.76L704.68 250.76L704.68 273.76L642.68 273.76L642.68 250.76Z" id="e3mJCL7qUj"></path><path d="M98.57 299.76C98.57 303.9 95.21 307.26 91.07 307.26C86.93 307.26 83.57 303.9 83.57 299.76C83.57 295.62 86.93 292.26 91.07 292.26C95.21 292.26 98.57 295.62 98.57 299.76Z" id="b22QIDFIfV"></path><path d="M790.36 288.26L821.36 288.26L821.36 311.26L790.36 311.26L790.36 288.26Z" id="a2vPU4vrAb"></path><path d="M108.83 295.76L268.33 295.76L268.33 303.76L108.83 303.76L108.83 295.76Z" id="d2DcgJpCX"></path><path d="M569.36 288.26L631.36 288.26L631.36 311.26L569.36 311.26L569.36 288.26Z" id="dnT1hm1WY"></path><path d="M715.99 288.26L777.99 288.26L777.99 311.26L715.99 311.26L715.99 288.26Z" id="c5F43xzm8x"></path><path d="M642.68 288.26L704.68 288.26L704.68 311.26L642.68 311.26L642.68 288.26Z" id="aHMdddb0c"></path><path d="M769.99 99L821.36 99L821.36 122L769.99 122L769.99 99Z" id="f3u8EITknk"></path></defs><g><g><g><use xlink:href="#cb2Swgd46U" opacity="1" fill="#121212" fill-opacity="1"></use></g><g><use xlink:href="#a1SHBtb6R1" opacity="1" fill="#1e1e1e" fill-opacity="1"></use></g><g><use xlink:href="#c11WeAyyUJ" opacity="1" fill="url(#gradientd2e9FLZg2T)"></use></g><g><use xlink:href="#aJbN8nl4P" opacity="1" fill="#ffffff" fill-opacity="0.92"></use></g><g><use xlink:href="#buylmWAWV" opacity="1" fill="#14b363" fill-opacity="1"></use></g><g><use xlink:href="#coi4lIVXU" opacity="1" fill="#494a4c" fill-opacity="1"></use></g><g><use xlink:href="#am1fdHKCc" opacity="1" fill="#ffffff" fill-opacity="0.83"></use></g><g><use xlink:href="#bnNQkTojO" opacity="1" fill="#7a7a7a" fill-opacity="1"></use></g><g><use xlink:href="#bopK4E6Jz" opacity="1" fill="#14b363" fill-opacity="1"></use></g><g><use xlink:href="#g1f0d3mIJ2" opacity="1" fill="#833a3a" fill-opacity="1"></use></g><g><use xlink:href="#bw8SqECC" opacity="1" fill="#14b363" fill-opacity="1"></use></g><g><use xlink:href="#a1TjOyJYZj" opacity="1" fill="#494a4c" fill-opacity="1"></use></g><g><use xlink:href="#m4SndGvjU" opacity="1" fill="#ffffff" fill-opacity="0.83"></use></g><g><use xlink:href="#b5fuzLGvhY" opacity="1" fill="#7a7a7a" fill-opacity="1"></use></g><g><use xlink:href="#eEQ96O3Si" opacity="1" fill="#14b363" fill-opacity="1"></use></g><g><use xlink:href="#c1SrZRolhj" opacity="1" fill="#833a3a" fill-opacity="1"></use></g><g><use xlink:href="#a1cpdnieYz" opacity="1" fill="#14b363" fill-opacity="1"></use></g><g><use xlink:href="#ae15jBgFm" opacity="1" fill="#494a4c" fill-opacity="1"></use></g><g><use xlink:href="#ajly5LE08" opacity="1" fill="#ffffff" fill-opacity="0.83"></use></g><g><use xlink:href="#dWeixOzY3" opacity="1" fill="#7a7a7a" fill-opacity="1"></use></g><g><use xlink:href="#b12qipuFjZ" opacity="1" fill="#14b363" fill-opacity="1"></use></g><g><use xlink:href="#a3eYqFWUH7" opacity="1" fill="#833a3a" fill-opacity="1"></use></g><g><use xlink:href="#e6Ahepd58" opacity="1" fill="#14b363" fill-opacity="1"></use></g><g><use xlink:href="#a17p3tgjMC" opacity="1" fill="#494a4c" fill-opacity="1"></use></g><g><use xlink:href="#a58HnMXQeg" opacity="1" fill="#ffffff" fill-opacity="0.83"></use></g><g><use xlink:href="#gtsemhE0H" opacity="1" fill="#7a7a7a" fill-opacity="1"></use></g><g><use xlink:href="#a5ZjqJrEYo" opacity="1" fill="#14b363" fill-opacity="1"></use></g><g><use xlink:href="#e3mJCL7qUj" opacity="1" fill="#833a3a" fill-opacity="1"></use></g><g><use xlink:href="#b22QIDFIfV" opacity="1" fill="#14b363" fill-opacity="1"></use></g><g><use xlink:href="#a2vPU4vrAb" opacity="1" fill="#494a4c" fill-opacity="1"></use></g><g><use xlink:href="#d2DcgJpCX" opacity="1" fill="#ffffff" fill-opacity="0.83"></use></g><g><use xlink:href="#dnT1hm1WY" opacity="1" fill="#7a7a7a" fill-opacity="1"></use></g><g><use xlink:href="#c5F43xzm8x" opacity="1" fill="#14b363" fill-opacity="1"></use></g><g><use xlink:href="#aHMdddb0c" opacity="1" fill="#833a3a" fill-opacity="1"></use></g><g><use xlink:href="#f3u8EITknk" opacity="1" fill="#3e5add" fill-opacity="1"></use></g></g></g></svg>