<?xml version="1.0" encoding="UTF-8" standalone="no"?>
<!DOCTYPE svg PUBLIC "-//W3C//DTD SVG 1.1//EN" "http://www.w3.org/Graphics/SVG/1.1/DTD/svg11.dtd">
<svg version="1.1" xmlns="http://www.w3.org/2000/svg" xmlns:xlink="http://www.w3.org/1999/xlink" preserveAspectRatio="xMidYMid meet" viewBox="0 0 850 130" width="850" height="130"><defs><path d="M7.8 43.88L7.8 123.1L35.57 123.1L35.57 43.88L7.8 43.88ZM21.69 35.11C26.66 35.11 30.75 33.79 33.96 30.87C37.03 27.95 38.64 24.29 38.64 19.91C38.64 15.82 37.03 12.31 33.96 9.68C30.75 7.05 26.66 5.59 21.69 5.59C16.57 5.59 12.48 7.05 9.41 9.82C6.19 12.75 4.73 16.26 4.73 20.35C4.73 24.59 6.19 28.09 9.41 30.87C12.48 33.79 16.57 35.11 21.69 35.11Z" id="a45IWADpZi"></path><path d="M143.76 14.65L115.99 14.65C115.99 36.31 115.99 48.34 115.99 50.75C110.72 45.34 103.42 42.56 94.06 42.56C86.75 42.56 80.18 44.32 74.33 47.53C68.34 50.9 63.66 55.72 60.15 61.86C56.64 68 55.04 75.16 55.04 83.34C55.04 91.53 56.64 98.84 60.15 104.97C63.66 111.26 68.34 116.08 74.33 119.44C80.18 122.81 86.75 124.41 94.06 124.41C104.29 124.41 112.04 121.34 117.3 115.21C117.3 115.73 117.3 118.36 117.3 123.1L143.76 123.1L143.76 14.65ZM99.91 102.34C94.94 102.34 90.99 100.74 87.92 97.37C84.71 94.01 83.25 89.34 83.25 83.34C83.25 77.5 84.71 72.97 87.92 69.6C90.99 66.39 94.94 64.63 99.91 64.63C104.73 64.63 108.68 66.39 111.75 69.6C114.82 72.97 116.42 77.5 116.42 83.34C116.42 89.34 114.82 94.01 111.75 97.37C108.53 100.74 104.58 102.34 99.91 102.34Z" id="b3Z72jNpKm"></path><path d="M167.57 14.65L167.57 123.1L195.34 123.1L195.34 14.65L167.57 14.65Z" id="c7Z2B4Yyc"></path><path d="M299.87 90.5C300.16 86.12 300.31 83.93 300.31 83.64C300.31 75.16 298.41 67.85 294.61 61.71C290.81 55.57 285.84 50.75 279.41 47.53C272.98 44.32 265.81 42.56 257.92 42.56C249.59 42.56 242.14 44.32 235.56 47.83C228.84 51.33 223.72 56.3 219.92 62.44C216.12 68.58 214.37 75.6 214.37 83.34C214.37 91.24 216.27 98.4 220.07 104.54C223.87 110.82 229.42 115.64 236.44 119.15C243.45 122.66 251.49 124.41 260.84 124.41C275.61 124.41 286.86 120.18 294.61 111.55C293.15 110.03 281.45 97.87 279.99 96.35C277.07 98.84 274.29 100.59 271.51 101.61C268.74 102.78 265.52 103.22 261.72 103.22C256.61 103.22 252.37 102.2 249.01 100.01C245.64 97.81 243.45 94.6 242.28 90.5C253.8 90.5 288.35 90.5 299.87 90.5ZM258.07 62.3C262.31 62.3 265.81 63.61 268.74 65.95C271.66 68.43 273.41 71.8 274.29 75.89C271.05 75.89 245.09 75.89 241.84 75.89C242.57 71.8 244.33 68.43 247.25 65.95C250.17 63.61 253.68 62.3 258.07 62.3Z" id="a16ptCqMr"></path><path d="M349.6 46.8C349.6 45.75 349.6 45.17 349.6 45.05C349.6 41.69 350.33 39.06 351.94 37.3C353.55 35.55 355.88 34.67 358.81 34.67C361.58 34.67 364.36 35.55 367.14 37.01C367.83 35.05 373.32 19.38 374.01 17.42C371.82 16.11 369.04 15.09 365.82 14.36C362.46 13.77 359.1 13.33 355.59 13.33C345.07 13.33 337.03 16.26 331.18 21.81C325.34 27.51 322.56 35.11 322.56 44.76C322.56 44.89 322.56 45.58 322.56 46.8L311.01 46.8L311.01 67.56L322.56 67.56L322.56 123.1L350.33 123.1L350.33 67.56L368.45 67.56L368.45 46.8L349.6 46.8Z" id="a4Gd2Zy5I0"></path><path d="M423.71 124.41C432.19 124.41 439.93 122.66 446.8 119.15C453.53 115.64 458.94 110.82 462.74 104.54C466.54 98.4 468.44 91.24 468.44 83.34C468.44 75.45 466.54 68.43 462.74 62.3C458.94 56.16 453.53 51.33 446.8 47.83C439.93 44.32 432.19 42.56 423.71 42.56C415.09 42.56 407.34 44.32 400.62 47.83C393.89 51.33 388.49 56.16 384.69 62.3C380.89 68.58 378.99 75.6 378.99 83.34C378.99 91.24 380.89 98.4 384.69 104.54C388.49 110.82 393.89 115.64 400.76 119.15C407.49 122.66 415.23 124.41 423.71 124.41ZM423.71 102.34C418.74 102.34 414.79 100.74 411.73 97.37C408.51 94.01 407.05 89.34 407.05 83.34C407.05 77.5 408.51 72.97 411.73 69.6C414.79 66.39 418.74 64.63 423.71 64.63C428.53 64.63 432.48 66.39 435.7 69.6C438.76 72.97 440.37 77.5 440.37 83.34C440.37 89.34 438.76 94.01 435.7 97.37C432.48 100.74 428.53 102.34 423.71 102.34Z" id="b15kJYfnDm"></path><path d="M513.84 53.38C513.84 52.75 513.84 49.58 513.84 43.88L487.39 43.88L487.39 123.1L515.16 123.1C515.16 101.26 515.16 89.13 515.16 86.7C515.16 80.13 516.77 75.16 520.13 71.94C523.49 68.73 528.17 67.12 534.16 67.12C535.77 67.12 537.81 67.27 540.45 67.56C540.45 65.06 540.45 45.06 540.45 42.56C534.6 42.56 529.34 43.59 524.81 45.34C520.28 47.1 516.62 49.87 513.84 53.38Z" id="j1tUwoyYg"></path><path d="M568.55 124.41C573.22 124.41 577.17 122.95 580.39 119.74C583.6 116.67 585.21 112.72 585.21 107.9C585.21 103.07 583.6 99.13 580.53 96.06C577.32 93.14 573.37 91.53 568.55 91.53C563.72 91.53 559.78 93.14 556.56 96.06C553.35 99.13 551.88 103.07 551.88 107.9C551.88 112.72 553.49 116.67 556.71 119.74C559.92 122.95 563.87 124.41 568.55 124.41Z" id="eujTGITi"></path><path d="M707.53 42.56C701.83 42.56 696.56 43.73 691.89 45.78C687.06 47.97 683.12 51.04 680.05 54.99C677.27 50.9 673.76 47.68 669.38 45.63C664.99 43.59 660.02 42.56 654.47 42.56C649.65 42.56 645.26 43.44 641.17 45.05C637.08 46.66 633.71 49 630.79 52.21C630.79 51.66 630.79 48.88 630.79 43.88L604.34 43.88L604.34 123.1L632.11 123.1C632.11 99.51 632.11 86.4 632.11 83.78C632.11 77.94 633.28 73.4 635.91 70.48C638.39 67.56 641.75 66.1 646.14 66.1C654.03 66.1 658.12 71.5 658.12 82.32C658.12 85.04 658.12 98.63 658.12 123.1L685.89 123.1C685.89 99.51 685.89 86.4 685.89 83.78C685.89 77.94 687.06 73.4 689.69 70.48C692.18 67.56 695.54 66.1 699.78 66.1C703.58 66.1 706.5 67.41 708.55 70.04C710.6 72.67 711.76 76.77 711.76 82.32C711.76 85.04 711.76 98.63 711.76 123.1L739.53 123.1C739.53 95.91 739.53 80.81 739.53 77.79C739.53 66.1 736.61 57.18 730.77 51.33C724.92 45.49 717.17 42.56 707.53 42.56Z" id="b1ZkjsDCy7"></path><path d="M844.83 90.5C845.12 86.12 845.27 83.93 845.27 83.64C845.27 75.16 843.37 67.85 839.57 61.71C835.77 55.57 830.8 50.75 824.37 47.53C817.94 44.32 810.77 42.56 802.88 42.56C794.55 42.56 787.1 44.32 780.52 47.83C773.79 51.33 768.68 56.3 764.88 62.44C761.08 68.58 759.33 75.6 759.33 83.34C759.33 91.24 761.23 98.4 765.03 104.54C768.83 110.82 774.38 115.64 781.4 119.15C788.41 122.66 796.45 124.41 805.8 124.41C820.57 124.41 831.82 120.18 839.57 111.55C838.11 110.03 826.41 97.87 824.95 96.35C822.03 98.84 819.25 100.59 816.47 101.61C813.7 102.78 810.48 103.22 806.68 103.22C801.57 103.22 797.33 102.2 793.96 100.01C790.6 97.81 788.41 94.6 787.24 90.5C798.76 90.5 833.31 90.5 844.83 90.5ZM803.03 62.3C807.27 62.3 810.77 63.61 813.7 65.95C816.62 68.43 818.37 71.8 819.25 75.89C816.01 75.89 790.05 75.89 786.8 75.89C787.53 71.8 789.29 68.43 792.21 65.95C795.13 63.61 798.64 62.3 803.03 62.3Z" id="aIGg7hNVp"></path></defs><g><g><g><use xlink:href="#a45IWADpZi" opacity="1" fill="#ffffff" fill-opacity="1"></use><g><use xlink:href="#a45IWADpZi" opacity="1" fill-opacity="0" stroke="#ffffff" stroke-width="0" stroke-opacity="1"></use></g></g><g><use xlink:href="#b3Z72jNpKm" opacity="1" fill="#ffffff" fill-opacity="1"></use><g><use xlink:href="#b3Z72jNpKm" opacity="1" fill-opacity="0" stroke="#ffffff" stroke-width="0" stroke-opacity="1"></use></g></g><g><use xlink:href="#c7Z2B4Yyc" opacity="1" fill="#ffffff" fill-opacity="1"></use><g><use xlink:href="#c7Z2B4Yyc" opacity="1" fill-opacity="0" stroke="#ffffff" stroke-width="0" stroke-opacity="1"></use></g></g><g><use xlink:href="#a16ptCqMr" opacity="1" fill="#ffffff" fill-opacity="1"></use><g><use xlink:href="#a16ptCqMr" opacity="1" fill-opacity="0" stroke="#ffffff" stroke-width="0" stroke-opacity="1"></use></g></g><g><use xlink:href="#a4Gd2Zy5I0" opacity="1" fill="#ffffff" fill-opacity="1"></use><g><use xlink:href="#a4Gd2Zy5I0" opacity="1" fill-opacity="0" stroke="#ffffff" stroke-width="0" stroke-opacity="1"></use></g></g><g><use xlink:href="#b15kJYfnDm" opacity="1" fill="#ffffff" fill-opacity="1"></use><g><use xlink:href="#b15kJYfnDm" opacity="1" fill-opacity="0" stroke="#ffffff" stroke-width="0" stroke-opacity="1"></use></g></g><g><use xlink:href="#j1tUwoyYg" opacity="1" fill="#ffffff" fill-opacity="1"></use><g><use xlink:href="#j1tUwoyYg" opacity="1" fill-opacity="0" stroke="#ffffff" stroke-width="0" stroke-opacity="1"></use></g></g><g><use xlink:href="#eujTGITi" opacity="1" fill="#ffffff" fill-opacity="1"></use><g><use xlink:href="#eujTGITi" opacity="1" fill-opacity="0" stroke="#ffffff" stroke-width="0" stroke-opacity="1"></use></g></g><g><use xlink:href="#b1ZkjsDCy7" opacity="1" fill="#ffffff" fill-opacity="1"></use><g><use xlink:href="#b1ZkjsDCy7" opacity="1" fill-opacity="0" stroke="#ffffff" stroke-width="0" stroke-opacity="1"></use></g></g><g><use xlink:href="#aIGg7hNVp" opacity="1" fill="#ffffff" fill-opacity="1"></use><g><use xlink:href="#aIGg7hNVp" opacity="1" fill-opacity="0" stroke="#ffffff" stroke-width="0" stroke-opacity="1"></use></g></g></g></g></svg>