<svg xmlns:dc="http://purl.org/dc/elements/1.1/" xmlns:cc="http://creativecommons.org/ns#" xmlns:rdf="http://www.w3.org/1999/02/22-rdf-syntax-ns#" xmlns:svg="http://www.w3.org/2000/svg" xmlns="http://www.w3.org/2000/svg" xmlns:xlink="http://www.w3.org/1999/xlink" id="svg655190" viewBox="0 0 1024 768" height="768px" width="1024px" version="1.1">
  <metadata id="metadata655196">
    <rdf:rdf>
      <cc:work rdf:about="">
        <dc:format>image/svg+xml</dc:format>
        <dc:type rdf:resource="http://purl.org/dc/dcmitype/StillImage"></dc:type>
      </cc:work>
    </rdf:rdf>
  </metadata>
  <defs id="defs655194"></defs>
  <linearGradient spreadMethod="pad" y2="30%" x2="-10%" y1="120%" x1="30%" id="3d_gradient2-logo-28020706-fa3e-4fc5-8b5a-fdb068ee7ddd">
    <stop id="stop655171" stop-opacity="1" stop-color="#ffffff" offset="0%"></stop>
    <stop id="stop655173" stop-opacity="1" stop-color="#000000" offset="100%"></stop>
  </linearGradient>
  <linearGradient gradientTransform="rotate(-30)" spreadMethod="pad" y2="30%" x2="-10%" y1="120%" x1="30%" id="3d_gradient3-logo-28020706-fa3e-4fc5-8b5a-fdb068ee7ddd">
    <stop id="stop655176" stop-opacity="1" stop-color="#ffffff" offset="0%"></stop>
    <stop id="stop655178" stop-opacity="1" stop-color="#cccccc" offset="50%"></stop>
    <stop id="stop655180" stop-opacity="1" stop-color="#000000" offset="100%"></stop>
  </linearGradient>
  <g id="logo-group">
    <image xlink:href="" id="container" x="272" y="144" width="480" height="480" style="display: none;" transform="translate(0 0)"></image>
    <g id="logo-center" transform="translate(0 0)">
      <image xlink:href="" id="icon_container" x="0" y="0" style="display: none;"></image>
      <g id="slogan" style="font-style:normal;font-weight:400;font-size:32px;line-height:1;font-family:Montserrat;font-variant-ligatures:none;text-align:center;text-anchor:middle" transform="translate(0 0)"></g>
      <g id="title" style="font-style:normal;font-weight:800;font-size:72px;line-height:1;font-family:'Montserrat ExtraBold Alt1';font-variant-ligatures:none;text-align:center;text-anchor:middle" transform="translate(0 0)">
        <path id="path655199" style="font-style:normal;font-weight:800;font-size:72px;line-height:1;font-family:'Montserrat ExtraBold Alt1';font-variant-ligatures:none;text-align:center;text-anchor:middle" d="M 359.4545,-39.024 V 0 h 13.68 v -39.024 z m 0.792,-6.408 c 1.512,1.44 3.528,2.088 6.048,2.088 2.448,0 4.464,-0.648 6.048,-2.088 1.512,-1.44 2.304,-3.24 2.304,-5.4 0,-2.016 -0.792,-3.744 -2.304,-5.04 -1.584,-1.296 -3.6,-2.016 -6.048,-2.016 -2.52,0 -4.536,0.72 -6.048,2.088 -1.584,1.44 -2.304,3.168 -2.304,5.184 0,2.088 0.72,3.816 2.304,5.184 z" stroke-width="0" fill="#ffffff" stroke="#ffffff" transform="translate(0 334.2106) translate(180.08548945000013 -9.624639999999992) scale(2.03) translate(-357.9425 57.888)"></path>
        <path id="path655201" style="font-style:normal;font-weight:800;font-size:72px;line-height:1;font-family:'Montserrat ExtraBold Alt1';font-variant-ligatures:none;text-align:center;text-anchor:middle" d="m 423.4265,-53.424 h -13.68 v 17.784 c -2.592,-2.664 -6.192,-4.032 -10.8,-4.032 -3.6,0 -6.84,0.864 -9.72,2.448 -2.952,1.656 -5.256,4.032 -6.984,7.056 -1.728,3.024 -2.52,6.552 -2.52,10.584 0,4.032 0.792,7.632 2.52,10.656 1.728,3.096 4.032,5.472 6.984,7.128 2.88,1.656 6.12,2.448 9.72,2.448 5.04,0 8.856,-1.512 11.448,-4.536 V 0 h 13.032 z m -15.768,40.752 c -1.584,1.656 -3.528,2.448 -5.832,2.448 -2.448,0 -4.392,-0.792 -5.904,-2.448 -1.584,-1.656 -2.304,-3.96 -2.304,-6.912 0,-2.88 0.72,-5.112 2.304,-6.768 1.512,-1.584 3.456,-2.448 5.904,-2.448 2.376,0 4.32,0.864 5.832,2.448 1.512,1.656 2.304,3.888 2.304,6.768 0,2.952 -0.792,5.256 -2.304,6.912 z" stroke-width="0" fill="#ffffff" stroke="#ffffff" transform="translate(0 334.2106) translate(230.38888945000016 -0.5627199999999917) scale(2.03) translate(-379.7225 53.424)"></path>
        <path id="path655203" style="font-style:normal;font-weight:800;font-size:72px;line-height:1;font-family:'Montserrat ExtraBold Alt1';font-variant-ligatures:none;text-align:center;text-anchor:middle" d="M 432.15762,-53.424 V 0 h 13.68 v -53.424 z" stroke-width="0" fill="#ffffff" stroke="#ffffff" transform="translate(0 334.2106) translate(342.9221830500001 -0.5627199999999917) scale(2.03) translate(-432.15762 53.424)"></path>
        <path id="path655205" style="font-style:normal;font-weight:800;font-size:72px;line-height:1;font-family:'Montserrat ExtraBold Alt1';font-variant-ligatures:none;text-align:center;text-anchor:middle" d="m 494.32963,-16.056 c 0.14399,-2.16 0.21599,-3.24 0.21599,-3.384 0,-4.176 -0.936,-7.776 -2.808,-10.8 -1.87199,-3.024 -4.32,-5.4 -7.488,-6.984 -3.168,-1.584 -6.696,-2.448 -10.584,-2.448 -4.104,0 -7.77599,0.864 -11.01599,2.592 -3.31201,1.728 -5.832,4.176 -7.70401,7.2 -1.872,3.024 -2.73599,6.48 -2.73599,10.296 0,3.888 0.93599,7.416 2.80799,10.44 1.87201,3.096 4.60801,5.472 8.064,7.2 3.456,1.728 7.41601,2.592 12.02401,2.592 7.272,0 12.81599,-2.088 16.63199,-6.336 l -7.2,-7.488 c -1.44,1.224 -2.808,2.088 -4.176,2.592 -1.368,0.576 -2.952,0.792 -4.824,0.792 -2.52,0 -4.608,-0.504 -6.264,-1.584 -1.656,-1.08 -2.736,-2.664 -3.31199,-4.68 z m -25.92001,-12.096 c 1.44,-1.152 3.168,-1.8 5.328,-1.8 2.088,0 3.816,0.648 5.256,1.8 1.44,1.224 2.304,2.88 2.736,4.896 h -15.98399 c 0.35999,-2.016 1.22399,-3.672 2.66399,-4.896 z" stroke-width="0" fill="#ffffff" stroke="#ffffff" transform="translate(0 334.2106) translate(389.7177633500001 27.353840000000012) scale(2.03) translate(-452.20963 39.672)"></path>
        <path id="path655207" style="font-style:normal;font-weight:800;font-size:72px;line-height:1;font-family:'Montserrat ExtraBold Alt1';font-variant-ligatures:none;text-align:center;text-anchor:middle" d="m 546.49925,-9.648 v -11.304 h -7.488 v -8.568 h -13.464 v 8.568 h -10.224 l 20.52,-29.448 h -14.76 l -22.608,31.464 v 9.288 h 26.64 V 0 h 13.896 v -9.648 z" stroke-width="0" fill="#ffffff" stroke="#ffffff" transform="translate(0 334.2106) translate(489.7269719500002 5.576000000000015) scale(2.03) translate(-498.47525 50.4)"></path>
        <path id="path655209" style="font-style:normal;font-weight:800;font-size:72px;line-height:1;font-family:'Montserrat ExtraBold Alt1';font-variant-ligatures:none;text-align:center;text-anchor:middle" d="m 613.547,-35.352 c -2.88,-2.88 -6.696,-4.32 -11.448,-4.32 -2.808,0 -5.4,0.576 -7.704,1.584 -2.376,1.08 -4.32,2.592 -5.832,4.536 -1.368,-2.016 -3.096,-3.6 -5.256,-4.608 -2.16,-1.008 -4.608,-1.512 -7.344,-1.512 -2.376,0 -4.536,0.432 -6.552,1.224 -2.016,0.792 -3.672,1.944 -5.112,3.528 v -4.104 H 551.267 V 0 h 13.68 v -19.368 c 0,-2.88 0.576,-5.112 1.872,-6.552 1.224,-1.44 2.88,-2.16 5.04,-2.16 3.888,0 5.904,2.664 5.904,7.992 V 0 h 13.68 v -19.368 c 0,-2.88 0.576,-5.112 1.872,-6.552 1.224,-1.44 2.88,-2.16 4.968,-2.16 1.872,0 3.312,0.648 4.32,1.944 1.008,1.296 1.584,3.312 1.584,6.048 V 0 h 13.68 v -22.32 c 0,-5.76 -1.44,-10.152 -4.32,-13.032 z" stroke-width="0" fill="#ffffff" stroke="#ffffff" transform="translate(0 334.2106) translate(602.9842244500002 27.353840000000012) scale(2.03) translate(-551.267 39.672)"></path>
        <path id="path655211" style="font-style:normal;font-weight:800;font-size:72px;line-height:1;font-family:'Montserrat ExtraBold Alt1';font-variant-ligatures:none;text-align:center;text-anchor:middle" d="m 666.73587,-16.056 c 0.144,-2.16 0.216,-3.24 0.216,-3.384 0,-4.176 -0.93599,-7.776 -2.808,-10.8 -1.87199,-3.024 -4.31999,-5.4 -7.48799,-6.984 -3.168,-1.584 -6.69601,-2.448 -10.58401,-2.448 -4.10399,0 -7.77599,0.864 -11.01599,2.592 -3.31201,1.728 -5.832,4.176 -7.70401,7.2 -1.872,3.024 -2.736,6.48 -2.736,10.296 0,3.888 0.936,7.416 2.808,10.44 1.87201,3.096 4.60801,5.472 8.06401,7.2 3.456,1.728 7.41599,2.592 12.024,2.592 7.27199,0 12.81599,-2.088 16.63199,-6.336 l -7.19999,-7.488 c -1.44001,1.224 -2.80801,2.088 -4.17601,2.592 -1.368,0.576 -2.952,0.792 -4.82399,0.792 -2.52001,0 -4.60801,-0.504 -6.264,-1.584 -1.65601,-1.08 -2.736,-2.664 -3.312,-4.68 z m -25.92,-12.096 c 1.44001,-1.152 3.168,-1.8 5.328,-1.8 2.088,0 3.816,0.648 5.256,1.8 1.44,1.224 2.30401,2.88 2.736,4.896 h -15.98399 c 0.36,-2.016 1.22399,-3.672 2.66399,-4.896 z" stroke-width="0" fill="#ffffff" stroke="#ffffff" transform="translate(0 334.2106) translate(757.9724305499999 27.353840000000012) scale(2.03) translate(-624.61587 39.672)"></path>
      </g>
      <image xlink:href="" id="icon" x="0" y="0" style="display: none;"></image>
    </g>
  </g>
</svg>